<?xml version="1.0" encoding="UTF-8" standalone="no"?>
<!--part of the matt icon theme by sixsixfive released under CC0 (https://creativecommons.org/publicdomain/zero/1.0/) on openclipart-->
<svg xmlns="http://www.w3.org/2000/svg" xmlns:xlink="http://www.w3.org/1999/xlink" viewBox="0 0 128 128">
 <defs id="0">
  <linearGradient id="D">
   <stop id="T"/>
   <stop id="U" offset="1" stop-opacity="0"/>
  </linearGradient>
  <linearGradient id="E">
   <stop id="V" stop-color="#fff"/>
   <stop id="W" offset="1" stop-color="#eddabc"/>
  </linearGradient>
  <linearGradient id="F">
   <stop id="X" stop-color="#c29650"/>
   <stop id="Y" offset="1" stop-color="#cca86e"/>
  </linearGradient>
  <linearGradient id="G">
   <stop id="Z" stop-color="#a37a39"/>
   <stop id="a" offset="1" stop-color="#c39854"/>
  </linearGradient>
  <linearGradient id="H">
   <stop id="b" stop-color="#eddabc"/>
   <stop id="c" offset="1" stop-color="#d8af6e"/>
  </linearGradient>
  <radialGradient cx="211.15" cy="382.63" r="110.72" id="I" xlink:href="#H" gradientUnits="userSpaceOnUse" gradientTransform="matrix(0.13337487,-0.58579661,0.43334796,0.09866518,-140.53171,197.47031)"/>
  <radialGradient cx="445.36" cy="201.93" r="119.48" id="J" xlink:href="#G" gradientUnits="userSpaceOnUse" gradientTransform="matrix(-0.37117278,0.14517548,-0.14805715,-0.37854038,312.3712,40.739168)"/>
  <radialGradient cx="139.26" cy="162.96" r="134.88" id="K" xlink:href="#E" gradientUnits="userSpaceOnUse" gradientTransform="matrix(0.50693897,-0.129967,0.0262165,0.10225801,-39.663475,32.07396)"/>
  <radialGradient cx="212.44" cy="280.07" r="228.86" id="L" xlink:href="#F" gradientUnits="userSpaceOnUse" gradientTransform="matrix(0.03919011,-0.09570432,0.16373591,0.06704846,-2.2215551,38.191936)"/>
  <filter color-interpolation-filters="sRGB" id="M">
   <feGaussianBlur stdDeviation="1.84125" id="d"/>
  </filter>
  <filter color-interpolation-filters="sRGB" id="N">
   <feGaussianBlur stdDeviation="1.0013" id="e"/>
  </filter>
  <linearGradient x1="48.3" y1="135.17" x2="72.26" y2="131" id="O" xlink:href="#D" gradientUnits="userSpaceOnUse"/>
 </defs>
 <path d="m 55.132413,114.01574 13.842394,0 1.476115,23.73867 -13.842394,0 -1.476115,-23.73867 z" transform="matrix(0.85693077,-0.4706646,0.46259458,0.87188005,2.2336477,0.32237861)" id="1" opacity="0.425" fill="url(#O)" filter="url(#N)"/>
 <path d="M 96.675414,14.344852 C 67.689599,27.185172 40.560433,41.085059 11.680603,54.183529 -7.6075114,79.672109 -26.168705,102.04586 -45.214473,127.6876 c 0.151729,2.90509 3.743817,4.43623 5.153803,6.80723 23.015547,25.23201 45.5168287,50.39807 68.676681,75.4598 6.224828,-0.31571 11.138232,-0.98651 17.378335,-1.83048 25.938049,-4.60892 51.976105,-8.89435 77.851984,-13.70442 3.21252,-5.55585 5.23055,-11.94584 8.01672,-17.79829 10.53597,-24.6053 21.42572,-49.1107 31.74136,-73.77824 -2.53772,-4.898976 -7.63337,-7.674135 -10.69436,-12.340782 C 134.45608,65.22696 116.26812,39.698472 97.648395,14.58068 c -2.439828,2.765187 -2.727177,2.05986 -0.972981,-0.235828 z" transform="matrix(0.48733016,0.40593889,-0.40593889,0.48733016,80.572751,-24.561254)" id="2" opacity="0.637" filter="url(#M)"/>
 <path d="m 97.75,12.875 a 1.6878972,1.6878972 0 0 0 -0.59375,0.15625 L 11.375,51.65625 a 1.6878972,1.6878972 0 0 0 -0.65625,0.5 L -46.5625,127.875 a 1.6878972,1.6878972 0 0 0 0.09375,2.15625 l 73.1875,80.65625 a 1.6878972,1.6878972 0 0 0 1.53125,0.53125 l 94.96875,-16.5625 a 1.6878972,1.6878972 0 0 0 1.28125,-1 L 163.46875,103.5 a 1.6878972,1.6878972 0 0 0 -0.1875,-1.65625 L 99.21875,13.5625 A 1.6878972,1.6878972 0 0 0 97.75,12.875 z" transform="matrix(0.48733016,0.40593889,-0.40593889,0.48733016,80.572751,-24.960797)" id="3" fill="#debd87"/>
 <path d="M 6.2472459,20.340269 9.1332307,88.517696 61.715239,118.75711 62.4297,40.768071 6.2472459,20.340269 z" id="4" fill="url(#I)"/>
 <path d="m 122.34471,21.870475 -59.789046,18.790616 -0.840425,78.096019 0.428141,0.24578 55.57899,-28.130421 4.62234,-69.001994 z" id="5" fill="url(#J)"/>
 <path d="M 64.854937,5.8469168 6.2155318,19.507773 l 0.031714,0.832496 56.3084182,20.320822 59.789046,-18.790616 0,-0.0079 L 64.854937,5.8469295 z" id="6" fill="url(#L)"/>
 <path d="M 6.0980104,19.74213 62.671811,40.820785 122.74052,21.708015" id="7" fill="none" stroke="#debc85" stroke-width="1.123"/>
 <path d="M 62.562595,40.820785 62.125732,119.45619" id="8" fill="none" stroke="#debc85" stroke-width="1.123"/>
 <path d="m 73.736489,41.471498 -8.236088,11.128322 3.939799,-1.24975 0.195562,7.675847 8.910728,-2.84348 -0.194993,-7.653619 3.939799,-1.249752 -8.554807,-5.807568 z" id="9" fill="#57401e"/>
 <g transform="matrix(0.26030068,-0.07746313,0.00782221,0.24496411,-0.12729197,-3.5642479)" id="A" fill="#57401e">
  <path d="m 268.52954,358.37859 c -2e-5,1.14926 -0.17066,2.19403 -0.51194,3.13432 -0.34131,0.94029 -0.83235,1.74477 -1.47313,2.41342 -0.6408,0.66865 -1.42438,1.18407 -2.35073,1.54626 -0.91941,0.36219 -1.9607,0.54328 -3.12387,0.54328 -1.23284,0 -2.31243,-0.18806 -3.23879,-0.56418 -0.9194,-0.38308 -1.68905,-0.91243 -2.30894,-1.58805 -0.6199,-0.68258 -1.08657,-1.49054 -1.4,-2.42387 -0.30646,-0.93332 -0.4597,-1.95371 -0.4597,-3.06118 0,-1.14924 0.1602,-2.18704 0.4806,-3.11342 0.32736,-0.92635 0.80447,-1.71341 1.43133,-2.36118 0.63383,-0.65471 1.41044,-1.1562 2.32984,-1.50447 0.92636,-0.35521 1.98855,-0.53282 3.18656,-0.53283 1.19799,10e-6 2.25669,0.17762 3.1761,0.53283 0.92635,0.35524 1.70296,0.86021 2.32984,1.51492 0.63381,0.65473 1.11441,1.44528 1.44178,2.37163 0.32735,0.91941 0.49103,1.95025 0.49105,3.09252 m -3.14476,0 c -2e-5,-0.77312 -0.094,-1.46963 -0.28209,-2.08954 -0.18111,-0.62685 -0.45275,-1.16317 -0.81492,-1.60895 -0.3622,-0.44576 -0.81145,-0.78705 -1.34776,-1.02387 -0.52936,-0.24377 -1.14577,-0.36566 -1.84924,-0.36567 -0.71742,10e-6 -1.34777,0.1219 -1.89104,0.36567 -0.53632,0.23682 -0.98557,0.57811 -1.34775,1.02387 -0.3622,0.44578 -0.63384,0.9821 -0.81493,1.60895 -0.18109,0.61991 -0.27164,1.31642 -0.27164,2.08954 0,0.76617 0.0906,1.46965 0.27164,2.11044 0.18806,0.63383 0.46318,1.1806 0.82537,1.64029 0.36219,0.4597 0.81144,0.81841 1.34776,1.07612 0.53631,0.25771 1.1562,0.38656 1.85969,0.38656 0.75223,0 1.39998,-0.12885 1.94328,-0.38656 0.54327,-0.26468 0.98903,-0.62686 1.3373,-1.08657 0.35521,-0.46666 0.61641,-1.0169 0.78358,-1.65074 0.16715,-0.64078 0.25073,-1.3373 0.25075,-2.08954" id="P"/>
  <path d="m 281.61007,360.11291 c -1e-5,0.85672 -0.0871,1.64726 -0.26119,2.37163 -0.16718,0.71742 -0.42837,1.34079 -0.78358,1.87014 -0.35523,0.52239 -0.80797,0.92985 -1.3582,1.22239 -0.54329,0.29253 -1.18757,0.4388 -1.93283,0.4388 -0.33433,0 -0.66866,-0.0348 -1.00298,-0.10448 -0.33433,-0.0696 -0.65125,-0.18457 -0.95074,-0.34477 -0.29951,-0.1602 -0.57463,-0.36915 -0.82537,-0.62686 -0.25075,-0.25771 -0.46667,-0.57463 -0.64776,-0.95075 l -0.0209,0 c -1e-5,0.14627 -0.007,0.31344 -0.0209,0.50149 -0.007,0.18806 -0.0174,0.37264 -0.0313,0.55373 -0.0139,0.17413 -0.0314,0.33085 -0.0522,0.47015 -0.0139,0.1393 -0.0279,0.23681 -0.0418,0.29254 l -2.85223,0 c 0.0209,-0.24378 0.0383,-0.58856 0.0522,-1.03433 0.0209,-0.45273 0.0313,-0.96815 0.0314,-1.54626 l 0,-12.92382 2.9358,0 0,4.32535 c 0,0.2229 -0.003,0.4423 -0.0104,0.65821 -10e-6,0.20896 -0.003,0.40399 -0.0104,0.58507 -0.007,0.20897 -0.0139,0.40747 -0.0209,0.59552 l 0.0418,0 c 0.35522,-0.78008 0.84278,-1.3373 1.46268,-1.67163 0.61989,-0.33432 1.3373,-0.50148 2.15223,-0.50149 0.72437,10e-6 1.34775,0.14628 1.87014,0.4388 0.52238,0.28558 0.95073,0.68956 1.28507,1.21194 0.34128,0.51543 0.59203,1.12836 0.75224,1.83879 0.16018,0.71045 0.24028,1.48707 0.24029,2.32984 m -3.06118,0 c -10e-6,-1.28158 -0.18806,-2.23232 -0.56417,-2.85222 -0.37613,-0.61989 -0.95772,-0.92984 -1.74477,-0.92985 -0.29951,10e-6 -0.59553,0.0592 -0.88806,0.17761 -0.29254,0.11842 -0.55373,0.32737 -0.78358,0.62686 -0.22985,0.29255 -0.41443,0.68956 -0.55372,1.19104 -0.13931,0.49454 -0.20896,1.1214 -0.20896,1.88059 0,0.73831 0.0696,1.35124 0.20896,1.8388 0.13929,0.48756 0.32039,0.87761 0.54328,1.17014 0.22288,0.29254 0.48059,0.49801 0.77313,0.61642 0.29253,0.11841 0.58855,0.17761 0.88805,0.17761 0.74527,0 1.31989,-0.30647 1.72388,-0.9194 0.40396,-0.61989 0.60595,-1.61243 0.60596,-2.9776" id="Q"/>
  <path d="m 288.62049,366.01587 c -0.81493,0 -1.54975,-0.11841 -2.20447,-0.35522 -0.64776,-0.24378 -1.20149,-0.60945 -1.66119,-1.09701 -0.4597,-0.49453 -0.81144,-1.11094 -1.05522,-1.84925 -0.24378,-0.74526 -0.36567,-1.61591 -0.36567,-2.61193 0,-1.07959 0.14279,-1.98854 0.42836,-2.72685 0.29253,-0.73829 0.68258,-1.33381 1.17014,-1.78656 0.49453,-0.45969 1.06218,-0.79053 1.70298,-0.99253 0.64079,-0.20198 1.31641,-0.30297 2.02686,-0.30298 0.89153,10e-6 1.65073,0.15672 2.2776,0.47014 0.63382,0.30648 1.15272,0.73832 1.55671,1.29552 0.40396,0.55722 0.69998,1.22587 0.88805,2.00596 0.18805,0.77314 0.28208,1.62985 0.28209,2.57014 l 0,0.0836 -7.25071,0 c -10e-6,0.47363 0.0418,0.91592 0.12537,1.32686 0.0836,0.40398 0.2194,0.75572 0.40746,1.05522 0.18806,0.29254 0.43184,0.52587 0.73134,0.69999 0.2995,0.16717 0.66168,0.25075 1.08656,0.25075 0.51542,0 0.93681,-0.10796 1.26418,-0.32388 0.32735,-0.22288 0.56068,-0.56417 0.69999,-1.02388 l 2.76865,0.2403 c -0.12539,0.3204 -0.303,0.66169 -0.53284,1.02388 -0.22289,0.36219 -0.52239,0.69651 -0.8985,1.00298 -0.37613,0.2995 -0.84627,0.55024 -1.41044,0.75223 -0.55722,0.19503 -1.23632,0.29254 -2.0373,0.29254 m 0,-9.87309 c -0.29951,10e-6 -0.5816,0.0522 -0.84627,0.15672 -0.25771,0.0975 -0.48408,0.25772 -0.6791,0.48059 -0.18806,0.21593 -0.3413,0.49802 -0.4597,0.84627 -0.11841,0.34826 -0.18458,0.76617 -0.19851,1.25372 l 4.38804,0 c -0.0557,-0.91242 -0.27513,-1.59501 -0.6582,-2.04775 -0.38309,-0.45969 -0.89851,-0.68954 -1.54626,-0.68955" id="R"/>
  <path d="m 303.22639,365.80692 0,-6.34177 c -10e-6,-0.43879 -0.0348,-0.83929 -0.10448,-1.20148 -0.0697,-0.36915 -0.18458,-0.68258 -0.34477,-0.9403 -0.16021,-0.26466 -0.36916,-0.47013 -0.62687,-0.61641 -0.25771,-0.14626 -0.57114,-0.21939 -0.94029,-0.2194 -0.35523,1e-5 -0.67911,0.0801 -0.97164,0.24029 -0.28557,0.15325 -0.53284,0.37613 -0.74178,0.66866 -0.20896,0.28558 -0.37264,0.63035 -0.49105,1.03432 -0.11144,0.39702 -0.16716,0.83582 -0.16716,1.31641 l 0,6.05968 -2.93581,0 0,-8.77608 c 0,-0.24377 -0.003,-0.49452 -0.0104,-0.75224 0,-0.2577 -0.007,-0.50148 -0.0209,-0.73134 -0.007,-0.2368 -0.0139,-0.44576 -0.0209,-0.62686 -0.007,-0.18805 -0.0174,-0.32735 -0.0313,-0.41791 l 2.79999,0 c 0.0139,0.0836 0.0279,0.21941 0.0418,0.40746 0.0139,0.18111 0.0279,0.3831 0.0418,0.60597 0.0139,0.22289 0.0244,0.44578 0.0313,0.66865 0.0139,0.2229 0.0209,0.41096 0.0209,0.56418 l 0.0418,0 c 0.39701,-0.86367 0.89501,-1.49053 1.49402,-1.88059 0.599,-0.39004 1.31292,-0.58506 2.14178,-0.58507 0.68258,10e-6 1.2572,0.11145 1.72387,0.33433 0.47362,0.22289 0.85671,0.52936 1.14925,0.91939 0.29949,0.39006 0.51541,0.84976 0.64776,1.3791 0.13233,0.52936 0.1985,1.1005 0.19851,1.71343 l 0,7.17758 -2.92536,0" id="S"/>
 </g>
 <path d="M 34.37719,29.724231 91.556048,13.211371" id="B" opacity="0.708" fill="#eddabc" stroke="#000" stroke-width="0.381"/>
 <path d="m 88.344436,11.310762 -58.335387,16.529896 -0.412283,9.157452 1.339921,-0.451926 -1.062423,1.070351 0.0555,0.02377 1.974204,-0.745282 -0.261642,1.228922 1.220994,-0.523283 -0.420212,0.91971 0.03171,0.01586 1.355779,-0.80871 0.08721,1.268565 0.832496,-0.737354 0.475712,0.911781 0.792853,-0.436069 0.261641,1.054495 0.959352,-0.880067 c 0,0 0.119342,0.225878 0.150642,0.285427 l 0.467784,-7.524162 60.182279,-17.663351 -9.696137,-2.696025 z" id="C" opacity="0.708" fill="url(#K)"/>
</svg>
